<svg xmlns="http://www.w3.org/2000/svg" viewBox="0 0 293.404 102.081" height="102.081" width="293.404">
    <path d="M54.32 5.833c.453-.519.627-1.317.583-2.333 2.94-.95 5.495-2.283 8.167-3.5 2.448 1.83 6.571 1.984 8.166 4.666.381 3.297-1.492 4.343-4.084 4.667 1.24 2.454.284 7.105.584 10.499-2.75.781-6.582.781-9.333 0V9.916c-1.585-1.137-3.456-1.988-4.083-4.083zm31.5 13.416c.127-3.433-3.993-2.619-4.668-5.25-.274 3.58 3.441 3.17 4.667 5.25zM83.484 21c.129-3.433-3.991-2.619-4.666-5.25-.118 3.424 3.55 3.061 4.666 5.25zm-2.333 1.75c-.015-3.29-3.273-3.337-4.666-5.25-.128 3.434 3.992 2.62 4.666 5.25zm7-2.333c1.965 1.771 1.768-2.157 0 0zm-7 7.583h15.75c-.551-7.996-15.34-8.476-15.75 0zm7.584.584c-3.314.38-8.156-.768-10.5.582 6.808-.386 15.163.776 21-.582h-10.5zm-26.25 3.5c4.12-1.317 7.742-5.612 5.834-11.084-3.968.297-7.354 1-10.5-.583-1.228 1.494-1.445 4-2.332 5.833-3.15-4.614-8.803-10.661-16.917-11.666-8.976-1.11-17.327 1.872-19.25 8.167 4.026-2.817 8.205-5.419 14.584-4.667 8.096.955 11.174 7.64 11.082 15.167-.132 10.906-8.753 17.394-18.666 17.499-15.286.161-25.27-11.268-24.5-28.582.74-3.111-.389.992-.582 1.75-6.295 24.715 12.314 39.851 35 33.249-3.996 20.774 9.126 33.328 18.082 44.915-3.877-12.822-11.973-25.297-9.334-41.416.989-6.036 4.95-10.248 8.75-12.832 10.796-7.341 32.294-5.397 35-16.917-5.34 5.543-19.757 5.978-26.25 1.166z" fill="#ff7300"/>
    <g fill="#ff7300">
        <path d="M143.65 22.133v6.355h-9.988v26.76h-7.455v-26.76h-9.987v-6.355zM170.838 30.113v25.134h-7.168c0-1.593.016-3.178.05-4.754.03-1.577.062-3.034.095-4.373.031-1.338.072-2.508.12-3.512.046-1.004.071-1.744.071-2.222a385.992 385.992 0 0 0-2.77 3.966 178.811 178.811 0 0 0-2.653 3.942 338.513 338.513 0 0 0-2.389 3.703 96.077 96.077 0 0 0-1.984 3.25h-6.26V30.113h7.122c0 1.593-.01 3.114-.025 4.563a260.638 260.638 0 0 1-.166 7.024 57.547 57.547 0 0 0-.049 2.031 354.692 354.692 0 0 1 5.281-7.55 102.226 102.226 0 0 1 4.707-6.068zM184.648 38.88c.683-.669 1.416-1.4 2.2-2.193.784-.793 1.543-1.579 2.28-2.355.735-.777 1.435-1.536 2.096-2.276a84.36 84.36 0 0 1 1.786-1.942h8.648c-.63.676-1.417 1.506-2.357 2.493a297.569 297.569 0 0 1-6.166 6.258 58.701 58.701 0 0 1-3.017 2.79c.952.735 1.968 1.648 3.047 2.735a55.436 55.436 0 0 1 3.174 3.493 78.235 78.235 0 0 1 2.961 3.775 45.677 45.677 0 0 1 2.406 3.59h-8.104a45.13 45.13 0 0 0-1.964-2.706 77.204 77.204 0 0 0-2.283-2.788 40.7 40.7 0 0 0-2.413-2.576 34.92 34.92 0 0 0-2.294-2.067v10.136h-7.12V30.113h7.12z"/>
        <path d="M201.277 37.758h13.857v6.451h-13.857zM242.085 22.133v6.355h-9.987v26.76h-7.454v-26.76h-9.986v-6.355zM251.832 29.444c2.103 0 3.854.24 5.257.717 1.401.478 2.523 1.163 3.368 2.055.844.892 1.441 1.976 1.792 3.25.351 1.273.525 2.691.525 4.252v14.813c-1.02.223-2.437.486-4.253.79-1.815.301-4.014.453-6.594.453-1.625 0-3.099-.143-4.42-.43-1.322-.287-2.46-.756-3.417-1.41a6.454 6.454 0 0 1-2.198-2.557c-.51-1.052-.764-2.34-.764-3.87 0-1.466.294-2.708.884-3.728a6.797 6.797 0 0 1 2.365-2.437c.987-.604 2.118-1.043 3.393-1.314a19.007 19.007 0 0 1 3.966-.406c.924 0 1.744.041 2.461.12.717.08 1.298.184 1.744.311v-.669c0-1.21-.366-2.182-1.099-2.915-.733-.732-2.007-1.099-3.823-1.099a24.37 24.37 0 0 0-3.584.263c-1.179.175-2.197.422-3.058.741l-.908-5.734c.414-.127.932-.263 1.553-.406.622-.143 1.298-.27 2.031-.382a44.735 44.735 0 0 1 2.317-.287 24.824 24.824 0 0 1 2.462-.12zm.574 20.834c.7 0 1.37-.016 2.007-.047a13.63 13.63 0 0 0 1.53-.144v-5.399a13.45 13.45 0 0 0-1.29-.19 14.548 14.548 0 0 0-1.578-.097c-.669 0-1.298.041-1.887.12a4.95 4.95 0 0 0-1.554.454 2.66 2.66 0 0 0-1.05.908c-.257.382-.384.86-.384 1.434 0 1.115.374 1.887 1.123 2.317.75.43 1.776.644 3.083.644zM276.346 38.88c.683-.669 1.416-1.4 2.2-2.193.784-.793 1.543-1.579 2.28-2.355.735-.777 1.435-1.536 2.096-2.276a84.36 84.36 0 0 1 1.786-1.942h8.648c-.63.676-1.417 1.506-2.357 2.493a297.569 297.569 0 0 1-6.166 6.258 58.701 58.701 0 0 1-3.017 2.79c.952.735 1.968 1.648 3.047 2.735a55.436 55.436 0 0 1 3.174 3.493 78.235 78.235 0 0 1 2.961 3.775 45.677 45.677 0 0 1 2.406 3.59H285.3a45.13 45.13 0 0 0-1.964-2.706 77.204 77.204 0 0 0-2.283-2.788 40.7 40.7 0 0 0-2.413-2.576 34.92 34.92 0 0 0-2.294-2.067v10.136h-7.12V30.113h7.12z"/>
    </g>
    <g fill="#ff7300">
        <path d="M116.491 77.091v-9.366h5.717v1.122h-4.406v2.784h3.92v1.095h-3.92v3.243h4.744v1.122zM124.505 77.091v2.5h-1.243V75.97h.986a5.831 5.831 0 0 0 1.061-1.736 9.769 9.769 0 0 0 .541-2.014c.113-.707.18-1.439.203-2.196.023-.757.04-1.522.047-2.298h5.298v8.244h1.176v3.622h-1.243v-2.5zm2.88-8.245c-.028.595-.058 1.2-.089 1.817-.032.617-.099 1.23-.203 1.838a11.804 11.804 0 0 1-.453 1.791 6.936 6.936 0 0 1-.838 1.676h4.284v-7.122zM133.98 77.091v-9.366h1.283v6.934c.288-.478.642-1.022 1.061-1.636a62.326 62.326 0 0 1 2.771-3.724 27.23 27.23 0 0 1 1.358-1.574h1.041v9.366h-1.284V69.78a24.11 24.11 0 0 0-.824 1c-.297.378-.604.781-.919 1.21a60.47 60.47 0 0 0-.953 1.331c-.32.46-.628.912-.926 1.357-.297.446-.574.877-.83 1.291a83.02 83.02 0 0 0-.684 1.122h-1.095zM149.71 67.724h1.311v9.366h-1.31v-4.325h-4.582v4.325h-1.31v-9.366h1.31v3.906h4.581zM159.604 77.091a44.35 44.35 0 0 1-.433-1.196c-.136-.392-.275-.79-.419-1.196h-4.244l-.852 2.393h-1.364c.36-.99.698-1.908 1.014-2.75a106.253 106.253 0 0 1 1.824-4.568c.297-.689.608-1.372.933-2.048h1.203c.324.676.635 1.358.932 2.048.298.69.598 1.412.9 2.17.3.756.61 1.556.925 2.397.315.843.653 1.76 1.014 2.751h-1.433zm-1.23-3.474a152.53 152.53 0 0 0-.858-2.277 40.178 40.178 0 0 0-.886-2.115 33.768 33.768 0 0 0-.898 2.115 92.97 92.97 0 0 0-.845 2.277zM166.267 67.63a14.657 14.657 0 0 1 1.263.055c.221.018.438.04.655.067.216.027.414.063.595.108v9.23h-1.312v-3.663h-1.12a6.934 6.934 0 0 1-.96-.054c-.163.216-.339.47-.528.757-.188.288-.378.595-.567.92-.189.323-.376.661-.56 1.013-.186.352-.355.694-.508 1.027h-1.379c.145-.352.315-.717.514-1.095.198-.379.403-.739.615-1.08.211-.344.414-.66.608-.954.193-.293.362-.534.507-.723a3.733 3.733 0 0 1-.649-.27 2.229 2.229 0 0 1-.62-.487 2.507 2.507 0 0 1-.468-.777c-.12-.31-.183-.683-.183-1.115 0-.486.095-.914.284-1.284.19-.369.462-.678.817-.926a3.9 3.9 0 0 1 1.291-.56 7.12 7.12 0 0 1 1.705-.189zm-.108 1.15a5.6 5.6 0 0 0-.979.08 2.627 2.627 0 0 0-.832.283c-.243.136-.437.32-.58.555-.145.234-.217.526-.217.878 0 .667.214 1.13.642 1.386.428.257 1.07.385 1.926.385h1.352V68.82c-.099 0-.216-.004-.352-.014a8.08 8.08 0 0 0-.412-.02 17.762 17.762 0 0 0-.548-.007zM178.253 77.293a4.782 4.782 0 0 1-1.797-.324 3.819 3.819 0 0 1-1.393-.946c-.388-.414-.687-.926-.898-1.533-.212-.608-.317-1.305-.317-2.088 0-.784.12-1.48.357-2.089a4.541 4.541 0 0 1 .967-1.533c.405-.415.878-.73 1.42-.946a4.598 4.598 0 0 1 1.728-.324c.388 0 .737.026 1.048.081.311.054.581.117.811.19.23.071.417.143.562.215.144.072.243.126.297.162l-.378 1.081a2.144 2.144 0 0 0-.352-.176 6.867 6.867 0 0 0-.52-.188 4.758 4.758 0 0 0-.636-.156 4.055 4.055 0 0 0-.696-.06c-.496 0-.94.085-1.338.256a2.771 2.771 0 0 0-1.014.743c-.28.324-.493.72-.643 1.183a5.124 5.124 0 0 0-.223 1.562c0 .56.065 1.067.196 1.526.13.46.326.854.588 1.183.261.33.588.584.98.764.391.181.85.271 1.371.271.604 0 1.104-.063 1.5-.189.396-.126.693-.238.892-.338l.338 1.081a1.802 1.802 0 0 1-.338.17 4.403 4.403 0 0 1-.607.195 7.614 7.614 0 0 1-1.905.227zM186.051 68.846l-.054 1.466c-.019.474-.046.933-.08 1.38-.037.445-.092.88-.163 1.303a9.59 9.59 0 0 1-.298 1.244 6.946 6.946 0 0 1-.466 1.142 3.631 3.631 0 0 1-.689.933c-.275.266-.6.48-.974.642-.373.162-.813.253-1.317.271l-.148-1.135c.631-.072 1.12-.27 1.466-.595.348-.324.634-.82.858-1.487.252-.757.412-1.669.48-2.736a56.98 56.98 0 0 0 .101-3.548h5.312v9.366h-1.31v-8.244h-2.718zM196.566 74.225c-.18.414-.367.804-.562 1.17a4.06 4.06 0 0 1-.688.952c-.267.27-.586.481-.96.635-.374.154-.836.23-1.386.23-.107 0-.22-.008-.338-.02a3.846 3.846 0 0 1-.338-.056 2.491 2.491 0 0 1-.283-.074.652.652 0 0 1-.176-.08l.23-1.109c.116.045.258.091.425.136.167.045.34.067.521.067.271 0 .507-.034.71-.102.202-.067.385-.162.547-.284.162-.12.307-.27.433-.445s.247-.372.364-.588a49.875 49.875 0 0 1-2.906-5.453 53.299 53.299 0 0 1-.648-1.48h1.486c.298.784.678 1.658 1.143 2.622a73.88 73.88 0 0 0 1.547 3.027c.36-.819.705-1.724 1.034-2.71.328-.986.637-1.966.926-2.939h1.42c-.208.648-.416 1.26-.623 1.831a65.24 65.24 0 0 1-.62 1.65c-.209.526-.416 1.04-.623 1.54-.208.501-.419.994-.635 1.48zM203.566 72.117l-.898-1.048a153.617 153.617 0 0 1-1.946-2.317 83.52 83.52 0 0 1-.83-1.027h1.526a84.518 84.518 0 0 0 1.588 1.967l.946 1.135c.32.384.623.741.912 1.075v-4.177h1.257v4.177a246.71 246.71 0 0 0 1.844-2.217c.311-.379.605-.736.885-1.074.28-.338.52-.633.717-.886h1.514a85.35 85.35 0 0 1-.83 1.027 157.806 157.806 0 0 1-1.94 2.31c-.324.38-.622.726-.893 1.041.36.324.721.688 1.081 1.088.36.401.71.817 1.048 1.25.338.433.655.874.953 1.325.297.45.563.892.797 1.324h-1.486a15.079 15.079 0 0 0-.824-1.25 26.412 26.412 0 0 0-.946-1.217 20.383 20.383 0 0 0-.979-1.102 15.978 15.978 0 0 0-.939-.905v4.474h-1.257v-4.474c-.298.262-.613.563-.946.905-.333.343-.662.71-.986 1.102-.324.392-.638.798-.939 1.217-.3.42-.574.835-.817 1.25h-1.474c.226-.433.486-.874.784-1.324a20 20 0 0 1 2.007-2.568c.366-.396.72-.757 1.071-1.08zM214.081 68.846v2.38h1.162c.657 0 1.245.053 1.764.161.518.107.957.281 1.317.52.36.24.636.546.824.92.19.373.284.831.284 1.371 0 .991-.36 1.737-1.08 2.237-.722.5-1.74.75-3.056.75a15.192 15.192 0 0 1-1.277-.055 15.44 15.44 0 0 1-.655-.067 5.084 5.084 0 0 1-.595-.108v-9.23h5.784v1.122h-4.472zm1.325 7.19c.352 0 .687-.026 1.007-.08.32-.055.602-.15.845-.29.243-.14.437-.328.581-.563.144-.233.216-.53.216-.892 0-.378-.065-.689-.195-.933a1.48 1.48 0 0 0-.562-.58 2.585 2.585 0 0 0-.898-.305 7.453 7.453 0 0 0-1.21-.088h-1.107v3.69c.1.008.216.017.351.025.117.01.257.014.42.014l.552.002zM227.393 77.091a44.35 44.35 0 0 1-.433-1.196c-.136-.392-.275-.79-.419-1.196h-4.244l-.852 2.393h-1.364c.36-.99.698-1.908 1.014-2.75a106.253 106.253 0 0 1 1.824-4.568c.297-.689.608-1.372.933-2.048h1.203c.324.676.635 1.358.932 2.048.298.69.598 1.412.9 2.17.3.756.61 1.556.925 2.397.315.843.653 1.76 1.014 2.751h-1.433zm-1.23-3.474a152.53 152.53 0 0 0-.858-2.277 40.178 40.178 0 0 0-.886-2.115 33.768 33.768 0 0 0-.898 2.115 92.97 92.97 0 0 0-.845 2.277zM234.015 71.617h.702c.298 0 .6-.022.906-.067.306-.045.585-.129.838-.25.252-.122.46-.286.621-.493.162-.208.243-.469.243-.784 0-.405-.173-.736-.52-.993-.348-.257-.81-.386-1.386-.386a4.92 4.92 0 0 0-1.338.17c-.396.112-.689.227-.879.344l-.419-1.067c.108-.072.255-.142.44-.21a6.27 6.27 0 0 1 1.372-.311c.27-.03.548-.047.837-.047.468 0 .9.05 1.297.148.396.1.74.25 1.027.452.288.203.514.46.676.771.162.312.243.68.243 1.102 0 .433-.138.838-.412 1.217-.274.378-.678.653-1.21.824.271.072.53.174.777.304.248.131.464.298.65.5.184.203.332.44.444.71.112.271.17.586.17.946 0 .495-.094.921-.277 1.276a2.365 2.365 0 0 1-.77.872 3.37 3.37 0 0 1-1.197.493 7.243 7.243 0 0 1-1.555.155c-.342 0-.666-.024-.973-.074a7.393 7.393 0 0 1-.824-.176 4.48 4.48 0 0 1-.636-.223 6.182 6.182 0 0 1-.419-.203l.393-1.08a5.369 5.369 0 0 0 .959.392c.207.062.438.116.69.161.25.045.517.067.797.067.766 0 1.362-.129 1.79-.386.428-.257.643-.69.643-1.304 0-.36-.075-.655-.224-.886a1.6 1.6 0 0 0-.607-.547 2.778 2.778 0 0 0-.906-.277 8.083 8.083 0 0 0-1.128-.074h-.838v-1.066zM247.205 77.091a44.35 44.35 0 0 1-.433-1.196c-.136-.392-.275-.79-.419-1.196h-4.244l-.852 2.393h-1.364c.36-.99.698-1.908 1.014-2.75a106.253 106.253 0 0 1 1.824-4.568c.297-.689.608-1.372.933-2.048h1.203c.324.676.635 1.358.932 2.048.298.69.598 1.412.9 2.17.3.756.61 1.556.925 2.397.315.843.653 1.76 1.014 2.751h-1.433zm-1.23-3.474a152.53 152.53 0 0 0-.857-2.277 40.178 40.178 0 0 0-.886-2.115 33.768 33.768 0 0 0-.898 2.115 92.97 92.97 0 0 0-.845 2.277zM256.841 67.724c-.279.307-.595.646-.946 1.021-.35.375-.719.757-1.102 1.148a140.105 140.105 0 0 1-2.21 2.21c.388.271.798.604 1.23 1a22.233 22.233 0 0 1 2.44 2.65c.364.47.67.914.912 1.338h-1.54c-.272-.424-.582-.85-.934-1.277a17.29 17.29 0 0 0-2.303-2.317 10.49 10.49 0 0 0-1.169-.852v4.446h-1.312v-9.366h1.312v4.136a85.235 85.235 0 0 0 2.162-2.136c.37-.378.718-.74 1.047-1.088.33-.347.606-.65.831-.912h1.582zM265.125 77.091a44.35 44.35 0 0 1-.433-1.196c-.136-.392-.275-.79-.419-1.196h-4.244l-.852 2.393h-1.364c.36-.99.698-1.908 1.014-2.75a106.253 106.253 0 0 1 1.824-4.568c.297-.689.608-1.372.933-2.048h1.203c.324.676.635 1.358.932 2.048.298.69.598 1.412.9 2.17.3.756.61 1.556.925 2.397.315.843.653 1.76 1.014 2.751h-1.433zm-1.23-3.474a152.53 152.53 0 0 0-.857-2.277 40.178 40.178 0 0 0-.886-2.115 33.768 33.768 0 0 0-.898 2.115 92.97 92.97 0 0 0-.845 2.277zM268.842 71.617h.702c.298 0 .6-.022.906-.067.306-.045.585-.129.838-.25.252-.122.46-.286.621-.493.162-.208.243-.469.243-.784 0-.405-.173-.736-.52-.993-.348-.257-.81-.386-1.386-.386a4.92 4.92 0 0 0-1.338.17c-.396.112-.689.227-.879.344l-.419-1.067c.108-.072.255-.142.44-.21a6.27 6.27 0 0 1 1.372-.311c.27-.03.548-.047.837-.047.468 0 .9.05 1.297.148.396.1.74.25 1.027.452.288.203.514.46.676.771.162.312.243.68.243 1.102 0 .433-.138.838-.412 1.217-.274.378-.678.653-1.21.824.271.072.53.174.777.304.248.131.464.298.65.5.184.203.332.44.444.71.112.271.17.586.17.946 0 .495-.094.921-.277 1.276a2.365 2.365 0 0 1-.77.872 3.37 3.37 0 0 1-1.197.493 7.243 7.243 0 0 1-1.555.155c-.342 0-.666-.024-.973-.074a7.393 7.393 0 0 1-.824-.176 4.48 4.48 0 0 1-.636-.223 6.182 6.182 0 0 1-.419-.203l.393-1.08a5.369 5.369 0 0 0 .959.392c.207.062.438.116.69.161.25.045.517.067.797.067.766 0 1.362-.129 1.79-.386.428-.257.643-.69.643-1.304 0-.36-.075-.655-.224-.886a1.6 1.6 0 0 0-.607-.547 2.778 2.778 0 0 0-.906-.277 8.083 8.083 0 0 0-1.128-.074h-.838v-1.066zM275.397 72.401c0-.802.12-1.51.357-2.122.24-.612.563-1.124.974-1.534.411-.41.887-.719 1.433-.926a4.85 4.85 0 0 1 1.736-.31c.604 0 1.174.103 1.71.31a3.98 3.98 0 0 1 1.412.926c.405.41.728.922.966 1.534.24.612.358 1.32.358 2.122 0 .802-.119 1.51-.358 2.121a4.432 4.432 0 0 1-.966 1.534 3.98 3.98 0 0 1-1.412.926 4.705 4.705 0 0 1-1.71.311 4.85 4.85 0 0 1-1.736-.31 4.026 4.026 0 0 1-1.433-.927c-.41-.41-.734-.92-.974-1.534-.238-.612-.357-1.319-.357-2.12zm1.378 0c0 .567.072 1.083.217 1.547.144.464.35.858.614 1.183.265.325.591.574.974.75.383.176.813.264 1.29.264a3.01 3.01 0 0 0 1.284-.264c.38-.176.7-.426.967-.75.266-.324.471-.719.614-1.183.145-.464.217-.979.217-1.547s-.072-1.084-.217-1.548a3.481 3.481 0 0 0-.614-1.183 2.725 2.725 0 0 0-.967-.75 3.01 3.01 0 0 0-1.284-.264c-.477 0-.907.088-1.29.264a2.706 2.706 0 0 0-.974.75 3.438 3.438 0 0 0-.614 1.183c-.145.464-.217.98-.217 1.548zM288.817 77.172a15.192 15.192 0 0 1-1.277-.055 15.44 15.44 0 0 1-.655-.067 5.092 5.092 0 0 1-.595-.107v-9.082c.181-.045.38-.08.595-.108.217-.027.435-.05.655-.067a14.85 14.85 0 0 1 1.263-.055c.541 0 1.048.041 1.521.122.474.081.883.22 1.23.412.347.193.62.448.817.764.198.316.297.703.297 1.162 0 .514-.12.935-.364 1.264a2.194 2.194 0 0 1-.974.736c.55.162.986.42 1.312.771.324.352.486.847.486 1.486 0 .938-.345 1.643-1.034 2.115-.689.472-1.782.71-3.277.71zm-1.23-5.5h1.378c.324 0 .631-.023.92-.068a2.25 2.25 0 0 0 .75-.243c.211-.117.378-.27.5-.46.121-.188.182-.428.182-.716a1.19 1.19 0 0 0-.188-.683 1.374 1.374 0 0 0-.52-.446 2.871 2.871 0 0 0-.778-.25 5.283 5.283 0 0 0-.946-.08 17.3 17.3 0 0 0-.783.013c-.189.01-.36.022-.514.041v2.891zm0 1.053v3.297c.1.01.216.02.352.027.116.01.254.016.412.021.157.005.34.007.547.007a7.73 7.73 0 0 0 1.102-.074c.347-.05.65-.138.912-.264a1.6 1.6 0 0 0 .63-.527c.156-.225.235-.509.235-.852 0-.306-.059-.565-.176-.777a1.305 1.305 0 0 0-.507-.506 2.416 2.416 0 0 0-.79-.27 5.834 5.834 0 0 0-1.027-.082z"/>
    </g>
</svg>