<svg xmlns="http://www.w3.org/2000/svg" viewBox="0 0 176.757 89.185" height="89.185" width="176.757">
    <defs>
        <clipPath id="a">
            <path d="M0 66.889h132.568V0H0z"/>
        </clipPath>
    </defs>
    <g clip-path="url(#a)" transform="matrix(1.33333 0 0 -1.33333 0 89.185)">
        <path d="M62.198 24.043h-8.06v4.969h2.043v-3.035h5.372c.886 0 1.048.671 1.048 1.342v4.192c0 .832-.135 1.209-1.048 1.209h-4.968c-1.72 0-2.42.993-2.42 2.631v4.701c0 2.175.994 2.794 2.902 2.794h7.71v-4.783h-2.07v2.822h-4.969c-.965 0-1.21-.592-1.21-1.289v-3.949c0-.564.11-1.022.886-1.022h5c1.665 0 2.468-.644 2.468-2.282v-5.91c0-1.693-1.289-2.39-2.684-2.39M76.471 34.654v-1.962h-5.749v-6.688h5.934v3.008H78.7v-4.97H66.854v1.962h1.583v14.882h-1.583v1.96H78.7v-4.861h-2.043v2.9h-5.934v-6.231zM83.329 24.043c-1.96 0-2.552 1.478-2.552 2.82v13.163c0 1.53.7 2.82 2.823 2.82h7.706v-4.862h-2.04v2.901h-5.183c-.671 0-1.022-.322-1.022-1.129V27.132c0-.725.136-1.129 1.022-1.129h5.236v3.009h2.044v-4.969zM101.685 34.654c.833 0 .992.564.992 1.208v3.76c0 .7-.16 1.264-.886 1.264h-5.048v-6.232zm-4.942-8.65h1.583v-1.961h-5.451v1.96h1.609v14.883h-1.61v1.96h9.59c1.962 0 2.497-1.155 2.497-2.337V35.78c0-1.45-.965-1.72-1.368-1.853v-.081c.403-.107 1.583-.296 1.583-1.987v-5.856h1.772v-1.961h-5.587v1.96h1.534v5.509c0 .724-.11 1.342-1.048 1.342h-5.104zM117.142 34.654v-1.962h-5.75v-6.688h5.935v3.008h2.043v-4.97h-11.845v1.962h1.583v14.882h-1.583v1.96h11.845v-4.861h-2.043v2.9h-5.934v-6.231zM130.529 37.285v3.6h-2.85V26.003h2.149v-1.96h-6.605v1.96h2.175v14.882h-2.876v-3.6h-2.04v5.561h12.087v-5.561zM42.772 36.91v5.422c0 1.108-.138 1.537-.818 1.47l-4.236-.419v-8.165l4.144.086c.7.014.91.793.91 1.606M42.023 32.852l-4.305.008v-8.974l3.98-.35c1.123-.1 1.192.45 1.192 1.668v5.946c0 1.037-.188 1.7-.868 1.702" fill="#3e3f40"/>
        <path d="M44.881 25.287c0-3.386-.493-4.72-3.069-4.43l-7.465.84v2.485l1.38-.12v19.124l-1.38-.137v2.485l7.771.96c1.895.234 2.645-.952 2.645-3.994v-5.22c0-1.542-.677-2.827-1.403-2.984v-.149c.7-.142 1.521-1.075 1.521-3.107zM32.894 39.281l-1.778-.11v3.56l-5.175-.513v-7.243l5.011.104v-2.405l-5.01.021v-7.773l5.174-.456v3.692l1.778-.089V21.86L22.57 23.023v2.195l1.38-.12V42.02l-1.38-.136v2.195l10.324 1.275zM21.36 41.765l-1.754-.173-3.089-17.887-2.202.247-2.343 14.95-.069-.007-2.786-14.357-2.106.237L4.412 40.09l-1.617-.159v1.708l4.824.596v-1.828l-1.242-.122L8.18 28.806l.12-.007 2.503 13.828 2.48.306 2.202-14.736.046-.003 2.271 13.22-1.334-.133v2.045l4.892.605zM0 51.003V14.486L50.09 0v66.888z" fill="#3e3f40"/>
    </g>
</svg>